<?xml version="1.0" standalone="no"?>
<!DOCTYPE svg PUBLIC "-//W3C//DTD SVG 20010904//EN"
 "http://www.w3.org/TR/2001/REC-SVG-20010904/DTD/svg10.dtd">
<svg version="1.0" xmlns="http://www.w3.org/2000/svg"
 width="300.000000pt" height="397.000000pt" viewBox="0 0 300.000000 397.000000"
 preserveAspectRatio="xMidYMid meet">
<metadata>
Created by potrace 1.10, written by Peter Selinger 2001-2011
</metadata>
<g transform="translate(0.000000,397.000000) scale(0.100000,-0.100000)"
fill="#ffffff" stroke="none">
<path d="M1430 3964 c-247 -48 -470 -270 -672 -670 -71 -141 -113 -243 -238
-584 -51 -137 -98 -236 -302 -630 -112 -215 -178 -384 -213 -547 l-6 -32 53
15 c141 42 272 112 606 326 270 173 438 264 572 309 80 27 114 32 218 37 75 3
146 0 183 -7 173 -34 366 -127 669 -322 324 -209 442 -273 594 -325 97 -33
100 -33 92 19 -15 90 -93 296 -171 451 -45 88 -133 262 -196 386 -66 130 -133
278 -158 350 -141 404 -226 593 -351 783 -152 231 -285 351 -457 414 -63 23
-174 36 -223 27z m195 -308 c129 -63 260 -226 388 -481 95 -189 608 -1288 603
-1292 -6 -7 -92 39 -279 148 -439 257 -623 329 -842 329 -215 0 -409 -77 -852
-338 -95 -56 -195 -113 -222 -127 l-50 -25 28 63 c16 34 119 254 229 488 110
234 223 477 252 540 165 361 287 554 411 645 121 89 223 104 334 50z"/>
<path d="M1390 1714 c-113 -13 -246 -40 -348 -68 -115 -33 -534 -165 -540
-170 -1 -2 -1 -59 0 -128 l3 -125 230 74 c410 132 556 163 755 163 205 0 360
-32 743 -155 111 -36 217 -68 235 -71 l32 -6 0 124 0 124 -242 76 c-282 90
-398 121 -522 143 -92 16 -285 26 -346 19z"/>
<path d="M1285 1224 c-129 -20 -269 -56 -520 -135 -121 -38 -271 -82 -332 -97
l-113 -27 0 -162 c0 -94 4 -163 9 -163 23 0 253 64 431 120 409 129 553 156
792 148 205 -7 313 -31 717 -158 181 -56 376 -110 400 -110 7 0 11 54 11 163
l0 162 -98 23 c-53 12 -198 54 -322 93 -401 125 -568 160 -770 158 -63 -1
-155 -7 -205 -15z"/>
<path d="M1315 679 c-114 -15 -288 -57 -510 -124 -263 -79 -429 -122 -553
-140 -54 -8 -100 -15 -104 -15 -5 0 -8 -90 -8 -200 l0 -200 43 6 c205 29 290
49 618 147 375 113 544 143 754 134 197 -9 300 -31 770 -171 184 -55 374 -98
483 -110 l52 -5 0 199 c0 110 -3 200 -7 200 -5 0 -51 7 -103 14 -135 21 -273
55 -525 131 -267 80 -387 110 -525 130 -114 16 -275 18 -385 4z"/>
</g>
</svg>
